<?xml version="1.0" encoding="UTF-8"?>
<svg version="1.1" xmlns="http://www.w3.org/2000/svg" width="2549" height="829">
<path d="M0 0 C4.70643176 0.00010423 9.41272131 -0.01388313 14.11911869 -0.03077221 C17.80888043 -0.04186935 21.49860638 -0.04392041 25.1883831 -0.04339027 C26.92703203 -0.04456083 28.66568218 -0.04892989 30.40431404 -0.05672264 C32.80545804 -0.06653724 35.20627241 -0.06364601 37.60742188 -0.05761719 C38.30487518 -0.06323669 39.00232849 -0.0688562 39.72091675 -0.074646 C44.87967578 -0.04179118 50.20133908 0.23345401 54.25848389 3.71134949 C58.28543227 9.57261966 61.49728311 15.72732095 64.61889648 22.11108398 C65.48620204 23.85797847 66.35350971 25.60487191 67.22092819 27.35171032 C68.42676687 29.78519843 69.62511346 32.22234374 70.82354736 34.65948486 C73.47376141 40.04448094 76.14118844 45.42099957 78.80639648 50.79858398 C79.37885101 51.95494858 79.95130554 53.11131317 80.54110718 54.30271912 C85.04323491 63.37214259 89.70342856 72.34796848 94.46704102 81.28225708 C95.88200195 83.94508751 97.27150898 86.62081902 98.65795898 89.29858398 C103.41821146 98.4827481 108.23724738 107.62424735 113.22827148 116.68530273 C118.79906884 126.80518319 124.10124464 137.05510485 129.34448242 147.34741211 C133.2128928 154.91900641 137.218902 162.40356732 141.31030273 169.85717773 C147.12060489 180.45519433 152.68731244 191.16271994 158.16577148 201.93530273 C159.17040102 203.9040574 160.17504002 205.87280723 161.1796875 207.84155273 C167.16108323 219.58378897 173.0735513 231.35930993 178.94545555 243.15656281 C180.05612232 245.38787693 181.16743351 247.61886909 182.27888489 249.84979248 C185.56760536 256.45235759 188.85324974 263.05635555 192.12387943 269.6679039 C202.03967789 289.8454962 202.03967789 289.8454962 213.47827148 309.18530273 C217.95609319 307.2684747 219.24287145 304.38349743 221.22827148 300.12280273 C221.5726123 299.410354 221.91695312 298.69790527 222.27172852 297.96386719 C224.34911449 293.64613523 226.35990811 289.29694767 228.38305664 284.95361328 C228.70322754 284.2669458 229.02339844 283.58027832 229.35327148 282.87280273 C229.68504395 282.16099854 230.01681641 281.44919434 230.35864258 280.71582031 C233.09687522 274.88941907 236.05024367 269.19760205 239.07470703 263.515625 C243.92047 254.39792763 248.62602222 245.20905908 253.33959961 236.02258301 C257.39219855 228.12446756 261.44698623 220.22795553 265.55249023 212.35717773 C272.57464368 198.88556954 279.39238335 185.34360482 285.89233398 171.61108398 C287.63484432 167.94536339 289.38143337 164.28199549 291.16186523 160.63452148 C291.54914795 159.83747803 291.93643066 159.04043457 292.33544922 158.21923828 C294.52327881 154.32545312 297.27688182 152.69255615 301.29077148 150.99780273 C309.41227905 148.92761453 317.60999923 148.98153047 325.94311523 148.86889648 C327.2486586 148.84811539 328.55420197 148.82733429 329.89930725 148.80592346 C332.66542317 148.7621329 335.43156096 148.72123078 338.19775391 148.68261719 C341.66218883 148.63419294 345.12651163 148.58040276 348.59083557 148.52465534 C361.81187634 148.3128321 375.03267093 148.14624334 388.25561523 148.13061523 C389.22699936 148.12859604 390.19838348 148.12657684 391.19920349 148.12449646 C403.28386844 148.1361436 415.52472505 148.27850377 427.47827148 150.18530273 C427.01378162 156.71503547 425.79225719 161.70199027 423.00170898 167.59545898 C422.64764984 168.36624283 422.2935907 169.13702667 421.92880249 169.9311676 C417.89579215 178.61654776 413.51883453 187.12750323 409.10327148 195.62280273 C408.25661081 197.26119284 407.41034169 198.89978534 406.56445312 200.53857422 C402.01110092 209.35029594 397.42089702 218.14221938 392.77172852 226.90380859 C389.48330738 233.11969132 386.35152518 239.40994234 383.22607422 245.70898438 C379.99253425 252.2070648 376.63046535 258.62976241 373.22827148 265.04077148 C370.22705588 270.71494474 367.33103009 276.43521117 364.47827148 282.18530273 C360.83464077 289.52949589 357.07124379 296.79917055 353.22827148 304.04077148 C349.84758417 310.43238344 346.59350237 316.88176934 343.40405273 323.37084961 C340.65525378 328.93113943 337.78283614 334.42079265 334.88452148 339.90405273 C329.66235024 349.7893843 324.56951225 359.73833826 319.49746704 369.70135498 C316.86236582 374.87712338 314.22294267 380.05068723 311.58374023 385.22436523 C311.05858322 386.25401398 310.53342621 387.28366272 309.99235535 388.34451294 C305.09062374 397.95191265 300.16163505 407.5451282 295.22290039 417.13354492 C290.82152458 425.67892967 286.42938608 434.22891079 282.05249023 442.78686523 C281.35661552 444.14713333 281.35661552 444.14713333 280.64668274 445.53488159 C278.39880578 449.92920218 276.15204653 454.32408771 273.90722656 458.7199707 C272.26445849 461.93588023 270.61434324 465.14785879 268.95874023 468.35717773 C267.22929276 471.71025825 265.5292974 475.07668077 263.84155273 478.45092773 C262.97085393 480.16467012 262.09977234 481.87821808 261.22827148 483.59155273 C260.84018311 484.3806604 260.45209473 485.16976807 260.05224609 485.98278809 C257.04289686 491.84301584 254.00965626 495.77830639 247.68395996 498.29862976 C244.34327925 499.22264072 241.56919586 499.44530535 238.10913086 499.45996094 C236.86764282 499.46949295 235.62615479 499.47902496 234.3470459 499.48884583 C233.0053708 499.4885844 231.66369569 499.48764735 230.32202148 499.48608398 C228.93249383 499.48997576 227.54296735 499.49431141 226.15344238 499.49906921 C223.24849582 499.50650948 220.34367086 499.50625568 217.4387207 499.50097656 C213.72652918 499.49517769 210.01483591 499.5121331 206.30272675 499.53532124 C203.4355786 499.55009037 200.56854969 499.55092611 197.70137024 499.54781151 C196.33310457 499.54832289 194.9648319 499.55352616 193.59660339 499.56362343 C191.68024544 499.57603413 189.76378613 499.56723201 187.84741211 499.55761719 C186.75964478 499.55824661 185.67187744 499.55887604 184.55114746 499.55952454 C179.62892252 498.96008483 176.4098434 497.12261624 172.94311523 493.63452148 C169.7099072 489.43894194 167.42193644 484.70860449 165.04077148 479.99780273 C163.97570706 477.92356358 162.91060122 475.84934568 161.84545898 473.77514648 C161.01739746 472.15261963 161.01739746 472.15261963 160.17260742 470.49731445 C157.93369426 466.12078766 155.66707446 461.7589096 153.39990234 457.39697266 C147.59347988 446.22473897 141.81436847 435.03830089 136.03134155 423.85394287 C131.51948 415.12803434 127.00162309 406.40526272 122.47827148 397.68530273 C117.95473134 388.96497929 113.43669387 380.24184024 108.9246521 371.51556396 C106.10982995 366.07181356 103.2942486 360.62845577 100.47827148 355.18530273 C100.1706488 354.59068237 99.86302612 353.99606201 99.54608154 353.38342285 C90.49482975 335.88581689 90.49482975 335.88581689 81.35327148 318.43530273 C71.48760986 299.72257573 61.77291871 280.93620605 52.12768555 262.10913086 C37.39241427 233.32040699 37.39241427 233.32040699 22.40454102 204.6628418 C17.53343877 195.43317416 12.77879966 186.14307126 8.00463867 176.86303711 C2.31894298 165.81167608 -3.39127254 154.77334943 -9.11938477 143.74389648 C-11.44726782 139.26079009 -13.76660874 134.773394 -16.08032227 130.28295898 C-21.37973404 120.00805682 -26.70486677 109.75577438 -32.27172852 99.62280273 C-65.26234448 39.54456462 -65.26234448 39.54456462 -75.95922852 14.18530273 C-76.37434692 13.21645142 -76.37434692 13.21645142 -76.79785156 12.22802734 C-78.34145576 8.38445812 -78.61382798 5.29071697 -78.52172852 1.18530273 C-52.34582325 0.40317639 -26.18765557 -0.00318245 0 0 Z " fill="#122C74" transform="translate(377.521728515625,195.814697265625)"/>
<path d="M0 0 C0.94336212 -0.00571014 1.88672424 -0.01142029 2.8586731 -0.01730347 C3.89195236 -0.01842133 4.92523163 -0.01953918 5.98982239 -0.02069092 C7.6244342 -0.02813828 7.6244342 -0.02813828 9.29206848 -0.03573608 C12.90592577 -0.05036933 16.51973914 -0.05716235 20.13362122 -0.06268311 C22.64365643 -0.06843444 25.15369162 -0.07419217 27.66372681 -0.07995605 C32.25845207 -0.08912557 36.85316472 -0.09542395 41.44789809 -0.09845281 C48.1978268 -0.10292734 54.94755238 -0.12044718 61.69741935 -0.1494534 C67.55308113 -0.17373805 73.40867559 -0.18140029 79.26438332 -0.18312836 C81.75022295 -0.1861523 84.23606178 -0.19417209 86.72186852 -0.20731354 C90.20457104 -0.22440792 93.68678219 -0.22248496 97.16950989 -0.21600342 C98.70424706 -0.22982559 98.70424706 -0.22982559 100.26998901 -0.243927 C107.07875734 -0.20432324 112.7676142 0.47253134 118.42712402 4.62571716 C124.15352504 11.32151841 127.77331886 19.145932 131.61018372 27.00372314 C132.38222717 28.56158784 133.15541815 30.11888431 133.9296875 31.67564392 C135.96007604 35.76485211 137.9763261 39.86086395 139.989151 43.95874023 C143.18767784 50.46323386 146.4096115 56.95620905 149.62688828 63.45144272 C150.79668799 65.81421198 151.96490595 68.1777589 153.13304138 70.54135132 C157.1904133 78.74225825 161.31259852 86.89519986 165.62808228 94.96400452 C169.63677652 102.49597944 173.43849116 110.13098051 177.24690247 117.76544189 C177.59672873 118.46656286 177.94655499 119.16768383 178.30698204 119.89005089 C181.20878478 125.70768658 184.10537714 131.52791319 187.00184631 137.34820557 C189.51868361 142.40512328 192.03738547 147.46110523 194.55940247 152.51544189 C194.90991102 153.21793816 195.26041958 153.92043442 195.62154961 154.64421844 C199.4517137 162.31478644 203.31025942 169.96522111 207.34455872 177.53106689 C214.32530366 190.6255177 220.87909743 203.94229127 227.50691223 217.21759033 C229.44477981 221.09900422 231.3862494 224.97860329 233.3287096 228.85772038 C240.63579917 243.45365295 247.8949754 258.06272272 254.88777161 272.81260681 C258.17484288 279.72460602 261.64504251 286.49851675 265.34065247 293.20294189 C265.877547 294.19358643 266.41444153 295.18423096 266.96760559 296.20489502 C269.58776122 301.00367943 272.26759524 305.65999506 275.40315247 310.14044189 C278.49886953 306.46557064 281.01052195 302.6403283 283.34065247 298.45294189 C283.71762268 297.77940674 284.0945929 297.10587158 284.48298645 296.41192627 C289.95763088 286.4862006 294.90809643 276.28202378 299.92854309 266.12188721 C302.15492699 261.62046334 304.40456747 257.13079751 306.65510559 252.64141846 C308.25515485 249.44641564 309.84428704 246.24656496 311.41877747 243.03887939 C323.20017916 219.10282054 323.20017916 219.10282054 329.40315247 214.14044189 C330.06315247 214.14044189 330.72315247 214.14044189 331.40315247 214.14044189 C332.89417812 216.32286365 334.24650639 218.48790024 335.57112122 220.76934814 C335.97300156 221.45179092 336.3748819 222.1342337 336.78894043 222.83735657 C340.65854928 229.46684611 344.23484968 236.23743923 347.71565247 243.07794189 C348.41402303 244.44120107 349.11251468 245.80439823 349.81111145 247.1675415 C360.28418713 267.6557812 370.52800487 288.26436338 380.77488708 308.86653137 C383.15659447 313.65334108 385.54508204 318.43504433 387.99128723 323.18927002 C388.36958176 323.92898544 388.74787628 324.66870087 389.13763428 325.43083191 C389.809292 326.74109556 390.48678908 328.04839409 391.17196655 329.35163879 C393.73169818 334.36106419 394.8201506 338.64136304 393.40315247 344.14044189 C391.78470931 348.43371788 389.5636222 352.28489682 387.13508606 356.16802979 C382.33517674 363.84419381 378.40558031 371.93995539 374.40248108 380.04830933 C372.28984959 384.32595203 370.1628655 388.59644294 368.03596497 392.86700439 C367.62458282 393.69349991 367.21320068 394.51999542 366.78935242 395.37153625 C362.86763777 403.23862033 358.79804571 411.01977593 354.65901184 418.77423096 C348.4273116 430.51560708 342.27533386 442.30833856 336.34065247 454.20294189 C336.04013977 454.80267822 335.73962708 455.40241455 335.43000793 456.02032471 C333.42465802 460.03938452 331.47178801 464.08147982 329.53205872 468.13262939 C328.48915775 470.2810998 327.44618898 472.42953729 326.40315247 474.57794189 C325.9286969 475.5854248 325.45424133 476.59290771 324.96540833 477.63092041 C321.30243196 485.13171539 316.66105438 493.54662932 308.71565247 497.14044189 C304.00138665 498.56361648 299.76380689 499.26641284 294.83772278 499.30157471 C293.74598755 499.31118225 292.65425232 499.32078979 291.5294342 499.33068848 C290.35854248 499.33493835 289.18765076 499.33918823 287.98127747 499.34356689 C286.76671875 499.34926697 285.55216003 499.35496704 284.30079651 499.36083984 C281.73205941 499.37027843 279.16331026 499.37681929 276.59455872 499.38067627 C272.68158127 499.39037146 268.7691315 499.42140252 264.85627747 499.45294189 C262.35628057 499.45947349 259.85627994 499.46472334 257.35627747 499.46856689 C256.19348267 499.4809137 255.03068787 499.4932605 253.83265686 499.50598145 C245.72650736 499.48395266 238.70160149 499.24515026 232.58503723 493.487854 C230.078151 489.64182994 228.26316904 485.80473961 226.49299622 481.58184814 C222.75167349 472.98367046 218.72463024 464.55448009 214.53205872 456.16778564 C214.22717907 455.55754169 213.92229942 454.94729774 213.608181 454.31856155 C211.71856425 450.53927388 209.8224636 446.76326842 207.92475891 442.98803711 C206.64698682 440.44330773 205.37370098 437.89634587 204.10042763 435.34936333 C197.37182064 421.89273071 190.54841348 408.49402269 183.49369812 395.20492554 C181.73306354 391.87191395 180.00382336 388.52290799 178.27815247 385.17169189 C177.95762405 384.5493013 177.63709564 383.92691071 177.30685425 383.28565979 C176.66589125 382.04022922 176.02515924 380.79467975 175.38465881 379.54901123 C170.80435182 370.64246316 166.2157911 361.74110608 161.52815247 352.89044189 C148.35736457 327.93657166 135.65472182 302.74732584 123.02883148 277.51473618 C121.98058887 275.4202857 120.93166074 273.32617981 119.88258362 271.23214722 C113.36900047 258.22738988 106.87262307 245.21929001 100.63752747 232.07794189 C95.33563573 220.90403096 89.74507443 209.88929524 84.09065247 198.89044189 C83.150932 197.0559434 82.2114791 195.22130782 81.27229309 193.38653564 C77.35807588 185.74758167 73.44094498 178.11064243 69.45491028 170.5088501 C61.55471644 155.41755277 53.90361637 140.20810023 46.30158997 124.96466064 C45.75785799 123.87457073 45.21412601 122.78448082 44.65391731 121.66135788 C39.54078073 111.40865183 34.43261411 101.15347349 29.32893372 90.89605713 C26.50875813 85.22859687 23.68447038 79.56320053 20.85782242 73.89896584 C19.79997531 71.77716772 18.74363319 69.65461842 17.68899155 67.5312252 C11.81876297 55.71281015 5.80482272 44.00624249 -0.60305214 32.46866131 C-11.24886375 13.25060854 -11.24886375 13.25060854 -10.59684753 5.14044189 C-7.97366014 0.51863553 -5.0588073 0.01834828 0 0 Z " fill="#1C66C0" transform="translate(38.59684753417969,195.85955810546875)"/>
<path d="M0 0 C18.81 0 37.62 0 57 0 C58.06959961 4.64715088 59.13919922 9.29430176 60.24121094 14.08227539 C63.78317967 29.46954141 67.3279716 44.85615601 70.87420273 60.24244022 C73.0233272 69.5673114 75.17149992 78.89239986 77.31738281 88.21801758 C79.18913536 96.35230322 81.06272391 104.48616347 82.93845963 112.61953157 C83.93030353 116.9205466 84.92126671 121.22176001 85.91002655 125.52348518 C86.84347348 129.584431 87.77940118 133.64479754 88.71711731 137.7047596 C89.05819954 139.1834169 89.39842664 140.6622718 89.73766327 142.14135361 C91.95804925 151.81930544 94.38230053 161.4224441 97 171 C97.24583958 170.02569818 97.49167915 169.05139635 97.74496841 168.04757023 C107.75551401 128.37587315 117.78477859 88.70901857 127.94997787 49.07662201 C128.55889685 46.70155397 129.16707663 44.32629777 129.77505493 41.95098877 C130.73348789 38.20706958 131.69399075 34.46368735 132.6561203 30.72071648 C133.00392854 29.36661483 133.35114524 28.01236105 133.69766998 26.65793037 C134.17494114 24.79320965 134.65494224 22.92918832 135.13500977 21.06518555 C135.40031998 20.03201706 135.66563019 18.99884857 135.9389801 17.93437195 C137.55634076 11.93703069 139.29354261 5.97260085 141 0 C158.49 0 175.98 0 194 0 C195.60033154 4.00082885 196.72449661 7.58816635 197.72973633 11.74609375 C197.89178967 12.4117784 198.05384302 13.07746305 198.22080708 13.76331997 C198.76132405 15.98722717 199.29661677 18.21235933 199.83203125 20.4375 C200.22008655 22.03785339 200.60851372 23.63811664 200.99728394 25.23829651 C201.83390106 28.6842865 202.66840931 32.13077766 203.50131226 35.57766724 C205.50201465 43.85563342 207.5156499 52.13045794 209.52820015 60.40555 C210.23324061 63.30480537 210.93790869 66.20415109 211.64256287 69.10350037 C216.48779106 89.03332124 221.3740193 108.95298875 226.2840271 128.86694336 C227.22108633 132.66793109 228.15624759 136.46937798 229.0897522 140.27124023 C230.18899247 144.74789793 231.29159635 149.22371287 232.39694595 153.69886589 C232.80385443 155.3486393 233.20957042 156.99870733 233.61404037 158.64908028 C234.16477695 160.89521782 234.71985595 163.14023657 235.27612305 165.38500977 C235.58664108 166.64547623 235.89715912 167.90594269 236.21708679 169.2046051 C236.72145034 171.88485122 236.72145034 171.88485122 238 173 C238.18936851 172.20029046 238.18936851 172.20029046 238.38256264 171.38442516 C242.46314107 154.15206136 246.54396932 136.91975671 250.625 119.6875 C250.7795303 119.03499047 250.9340606 118.38248095 251.09327364 117.7101984 C260.3860483 78.47121437 269.68474667 39.23365518 279 0 C297.48 0 315.96 0 335 0 C333.87500307 8.99997541 333.87500307 8.99997541 333.02967834 12.1436615 C332.83875673 12.86408001 332.64783512 13.58449852 332.45112801 14.32674789 C332.24303946 15.09024677 332.0349509 15.85374565 331.82055664 16.64038086 C331.48713918 17.88915953 331.48713918 17.88915953 331.14698601 19.16316605 C330.40642017 21.93177177 329.65829158 24.69827473 328.91015625 27.46484375 C328.37693869 29.45221136 327.84420031 31.43970759 327.31190491 33.42732239 C325.86926008 38.80905461 324.42012313 44.18901966 322.96988678 49.56871033 C321.44519794 55.22931298 319.92672202 60.89158152 318.40771484 66.55371094 C315.87749559 75.98241183 313.34397705 85.41022017 310.80810547 94.83740234 C305.73321195 113.7046629 300.67552408 132.57653256 295.6180954 151.44848061 C293.96503413 157.6167234 292.31111553 163.78473544 290.65641785 169.95253944 C283.55793142 196.41161506 283.55793142 196.41161506 276.51953125 222.88671875 C276.03912384 224.7016835 276.03912384 224.7016835 275.54901123 226.55331421 C274.15699152 231.81604768 272.76831649 237.07963211 271.38525391 242.34472656 C271.15255295 243.22747757 270.91985199 244.11022858 270.68009949 245.01972961 C270.2621445 246.60532844 269.84589651 248.19137882 269.43183899 249.77799988 C268.11281553 254.77436895 268.11281553 254.77436895 267 257 C248.19 257 229.38 257 210 257 C206.84852335 245.65468407 203.76529948 234.33643108 200.9440918 222.91162109 C200.56918961 221.40154273 200.1940655 219.89151944 199.81874084 218.38154602 C198.8168371 214.34816763 197.81797284 210.31404246 196.8197248 206.27975798 C195.76988578 202.03929481 194.71715288 197.79955013 193.66474915 193.5597229 C191.67961178 185.56035272 189.69701357 177.56035559 187.71536618 169.56012022 C185.45610882 160.43967012 183.19396177 151.31993752 180.93159235 142.20025897 C176.28455145 123.46762624 171.64107315 104.7341121 167 86 C162.97726486 102.37453322 158.95673833 118.74960812 154.9375 135.125 C154.64138447 136.33135731 154.34526894 137.53771461 154.04018021 138.7806282 C146.00223961 171.5278988 137.98551166 204.27980633 130.10327148 237.06494141 C129.82370605 238.22607956 129.54414062 239.38721771 129.25610352 240.58354187 C128.74828428 242.6934458 128.24159328 244.80362178 127.73632812 246.91413879 C127.41039673 248.2684626 127.41039673 248.2684626 127.07788086 249.65014648 C126.89204941 250.42519028 126.70621796 251.20023407 126.51475525 251.99876404 C126.08083941 253.68571718 125.55082609 255.34752172 125 257 C105.86 257 86.72 257 67 257 C65.0364178 251.10925341 63.20746106 245.32557987 61.65356445 239.33447266 C61.43757473 238.51179586 61.22158501 237.68911907 60.99905014 236.84151268 C60.28432013 234.11642257 59.5738187 231.39024849 58.86328125 228.6640625 C58.35065664 226.70646982 57.83774551 224.74895216 57.3245697 222.79150391 C56.22573811 218.59802985 55.12869857 214.40409277 54.03308105 210.20977783 C52.29498466 203.55620064 50.55274829 196.90371228 48.80957031 190.25146484 C48.51590891 189.1307641 48.22224751 188.01006336 47.91968727 186.85540199 C47.32185665 184.57391079 46.72401534 182.29242238 46.12616348 180.01093674 C45.2172004 176.54167652 44.30861652 173.07231716 43.40011597 169.60293579 C37.87852181 148.51965049 32.32746508 127.44419039 26.76620483 106.37133789 C25.50816849 101.60408483 24.25119023 96.83655358 22.99461079 92.06891632 C18.65808197 75.61586206 14.318491 59.16377299 9.92650604 42.72542191 C8.75338919 38.3325428 7.583883 33.93870032 6.41345215 29.54510498 C5.53190614 26.24446147 4.64364485 22.94567898 3.75488281 19.64697266 C3.24251749 17.72567153 2.73045033 15.80429085 2.21875 13.8828125 C1.98883362 13.03867798 1.75891724 12.19454346 1.52203369 11.3248291 C1.31818054 10.55392944 1.11432739 9.78302979 0.90429688 8.98876953 C0.72797729 8.33280792 0.55165771 7.67684631 0.36999512 7.00100708 C0 5 0 5 0 0 Z " fill="#000000" transform="translate(1007,314)"/>
<path d="M0 0 C17.16 0 34.32 0 52 0 C52.33 30.03 52.66 60.06 53 91 C54.98 88.69 56.96 86.38 59 84 C71.51411727 73.02845496 87.43643608 66.89459511 104 66 C104.96292969 65.94714844 105.92585938 65.89429688 106.91796875 65.83984375 C126.35037623 65.29545231 143.23704078 71.47842437 158 84 C158.72832031 84.61488281 159.45664063 85.22976563 160.20703125 85.86328125 C175.07371574 99.55705178 182.24910938 119.68089672 186 139 C186.18433594 139.94746094 186.36867188 140.89492188 186.55859375 141.87109375 C190.72068241 171.37404077 187.73125668 205.9587283 170.0625 230.9375 C168.72833219 232.64085547 167.37489376 234.32934421 166 236 C165.39671875 236.77730469 164.7934375 237.55460938 164.171875 238.35546875 C153.60424532 251.25419321 138.19107599 258.9406084 122 262 C117.59408463 262.41475284 113.23584574 262.4778944 108.8125 262.4375 C107.04193237 262.42505249 107.04193237 262.42505249 105.2355957 262.41235352 C86.5264133 262.05297965 70.05216516 257.29766214 56.0859375 244.30859375 C54 242 54 242 50 236 C49.67 242.93 49.34 249.86 49 257 C32.83 257 16.66 257 0 257 C0 172.19 0 87.38 0 0 Z M63.0625 119.25390625 C50.13668397 136.60904286 47.84220204 158.69744368 50.77392578 179.60180664 C53.15794292 194.18940528 58.72444537 207.77585403 70.8125 216.875 C80.77604139 223.33257344 91.6086451 224.6964472 103.24609375 222.34375 C114.69773758 218.95931514 122.0987946 212.25334438 128 202 C137.99999432 182.89674997 138.48622482 159.54042571 133 139 C128.94202307 126.68216931 122.72658972 116.21483047 111.41796875 109.45703125 C94.86376908 101.37242211 75.07311067 105.28188537 63.0625 119.25390625 Z " fill="#000000" transform="translate(1553,314)"/>
<path d="M0 0 C26.82348361 -0.49469539 48.109463 7.37108014 67.625 25.7421875 C87.94787131 46.60742743 94.59991302 76.71014906 94.6953125 104.99609375 C94.5625 107.1171875 94.5625 107.1171875 93.5625 111.1171875 C49.6725 111.1171875 5.7825 111.1171875 -39.4375 111.1171875 C-35.59029893 132.70961872 -35.59029893 132.70961872 -22.4375 149.1171875 C-10.73267551 156.38895554 2.6933014 158.01760211 16.1328125 155.4296875 C26.82801556 152.39558734 36.2029897 147.49385184 42.5625 138.1171875 C43.2225 136.4671875 43.8825 134.8171875 44.5625 133.1171875 C59.7425 133.1171875 74.9225 133.1171875 90.5625 133.1171875 C86.57609769 153.04919906 73.11366695 172.01737357 56.33984375 183.28125 C40.23129565 193.23030899 23.08823922 196.47557152 4.3125 196.4296875 C3.00925781 196.44580078 1.70601562 196.46191406 0.36328125 196.47851562 C-24.80340671 196.49098673 -47.6752872 187.71588467 -65.68359375 170.06640625 C-83.94471057 151.15651412 -90.88672272 125.15890249 -90.8125 99.5546875 C-90.81195618 98.84853302 -90.81141235 98.14237854 -90.81085205 97.41482544 C-90.77137134 86.25394483 -90.03689564 75.75213652 -86.4375 65.1171875 C-86.10806396 64.13177979 -86.10806396 64.13177979 -85.77197266 63.12646484 C-77.46086764 39.06366892 -61.64267237 20.08738931 -38.81494141 8.81860352 C-26.59538721 3.19213497 -13.3773782 0.45604698 0 0 Z M-18.4375 44.1171875 C-19.24445313 44.55289063 -20.05140625 44.98859375 -20.8828125 45.4375 C-26.3961244 48.76732204 -30.05182493 52.6711169 -33.4375 58.1171875 C-34.02337891 59.04144531 -34.02337891 59.04144531 -34.62109375 59.984375 C-38.09138874 66.11141598 -38.17786538 70.55937976 -39.4375 78.1171875 C-12.7075 78.1171875 14.0225 78.1171875 41.5625 78.1171875 C40.12423544 65.17280643 36.06637174 54.17650504 25.75 45.8046875 C19.0150928 40.61598416 10.93869934 39.57938348 2.6875 39.6796875 C1.81053467 39.68726074 0.93356934 39.69483398 0.0300293 39.70263672 C-6.74187276 39.87452196 -12.41889782 40.85457824 -18.4375 44.1171875 Z " fill="#000000" transform="translate(1430.4375,379.8828125)"/>
<path d="M0 0 C0.94101563 0.44214844 1.88203125 0.88429688 2.8515625 1.33984375 C23.66711055 11.92352381 37.98641828 31.11871422 45.37109375 52.95214844 C50.50993305 69.68529441 51 85.22141732 51 103 C7.11 103 -36.78 103 -82 103 C-79.97514679 117.17397247 -77.91539881 130.90492031 -66.25 140.3125 C-54.60936079 148.34052704 -40.14780695 149.85521581 -26.453125 147.3515625 C-15.44707054 144.27092046 -5.92634458 139.01490285 0 129 C0.66 127.68 1.32 126.36 2 125 C17.18 125 32.36 125 48 125 C39.61348922 148.48223017 27.92554441 168.3783903 5 180 C-9.12410698 186.13325734 -23.38159857 188.58215187 -38.75 188.4375 C-39.44899414 188.43412628 -40.14798828 188.43075256 -40.86816406 188.42727661 C-67.6143385 188.24073395 -90.72421511 180.03228381 -109.81762695 160.72827148 C-114.84710388 155.37828454 -118.4891294 149.44753339 -122 143 C-122.70382813 141.78957031 -122.70382813 141.78957031 -123.421875 140.5546875 C-136.81048904 116.17418663 -137.21286188 84.30164789 -129.93359375 58.0078125 C-122.57434417 34.25419504 -107.29179791 14.56206263 -85.30444336 2.86791992 C-59.35678998 -10.46205103 -26.71075945 -12.56766296 0 0 Z M-72.75 44.6875 C-79.29207287 52.67491455 -80.96945075 59.69450749 -82 70 C-55.27 70 -28.54 70 -1 70 C-3.60951525 56.95242373 -6.68725691 46.88132134 -17 38 C-34.44263781 26.90013957 -58.54551168 29.71603067 -72.75 44.6875 Z " fill="#000000" transform="translate(2452,388)"/>
<path d="M0 0 C8.42553238 7.11658844 15.23952824 14.52198027 20.58984375 24.1875 C21.12351562 25.14527344 21.6571875 26.10304688 22.20703125 27.08984375 C36.35089278 53.86466621 37.21075153 87.3101747 28.40234375 115.9375 C23.85731023 128.52792121 17.60119393 139.25190878 8.58984375 149.1875 C8.05101563 149.81914063 7.5121875 150.45078125 6.95703125 151.1015625 C-6.95816677 166.41527289 -30.490135 175.29476909 -50.76489258 176.36450195 C-81.65948894 176.9089479 -81.65948894 176.9089479 -96.41015625 172.1875 C-97.580625 171.81367187 -98.75109375 171.43984375 -99.95703125 171.0546875 C-122.64994005 163.01095692 -139.10132413 147.37442817 -149.65625 126.08203125 C-156.64791646 111.11070432 -158.79929882 95.3466736 -158.72265625 78.9375 C-158.7170166 77.66624268 -158.71137695 76.39498535 -158.70556641 75.08520508 C-158.36159161 48.36245002 -149.84878452 24.33347028 -131.140625 4.8203125 C-97.13497589 -27.77548383 -36.60650014 -28.18425274 0 0 Z M-94.53515625 33.3125 C-107.19944044 49.04795937 -108.62786973 70.37462061 -107.13671875 89.73828125 C-105.30510091 104.99600347 -100.70178629 120.08457135 -88.22265625 129.9453125 C-78.06106808 136.9095044 -67.54001081 138.16178551 -55.41015625 137.1875 C-43.22191115 134.84565378 -34.68264772 129.16272669 -27.41015625 119.1875 C-16.60005706 101.58080728 -15.94386325 77.75411104 -19.59765625 57.875 C-22.71196136 45.07174565 -27.81072105 33.64151082 -38.78515625 25.75 C-56.81709712 14.99784607 -80.20955166 18.09848582 -94.53515625 33.3125 Z " fill="#000000" transform="translate(2129.41015625,399.8125)"/>
<path d="M0 0 C15.86562838 13.75373109 23.14797612 30.81276902 25.22167969 51.54980469 C8.39167969 51.54980469 -8.43832031 51.54980469 -25.77832031 51.54980469 C-27.42832031 46.92980469 -29.07832031 42.30980469 -30.77832031 37.54980469 C-35.80690301 29.56966257 -41.47947011 24.51020535 -50.71191406 22.05761719 C-63.32885559 19.96818738 -75.14625958 20.96123621 -86.02832031 28.11230469 C-98.02336407 37.84598774 -102.78461039 54.98756803 -104.46582031 69.67480469 C-105.98900895 89.41279072 -103.13774047 109.75765012 -90.71582031 125.73730469 C-84.96800863 132.06749376 -76.19160297 136.1952824 -67.67675781 136.75292969 C-55.94945495 136.90894702 -46.14780418 135.01389772 -36.77832031 127.54980469 C-31.13132664 121.39533739 -28.23704753 114.42705398 -25.77832031 106.54980469 C-25.11832031 104.56980469 -24.45832031 102.58980469 -23.77832031 100.54980469 C-7.27832031 100.54980469 9.22167969 100.54980469 26.22167969 100.54980469 C21.60564231 125.16867072 13.98027431 146.15557495 -7.09082031 161.36230469 C-29.84783047 176.26748093 -59.57942093 180.8196531 -86.26464844 175.42260742 C-89.50802805 174.62080686 -92.61681774 173.64091276 -95.77832031 172.54980469 C-96.4210791 172.33549805 -97.06383789 172.12119141 -97.72607422 171.90039062 C-120.48208983 164.18210737 -136.31489098 148.74580964 -147.52832031 127.86230469 C-160.72748337 100.45101955 -159.88701342 67.53186401 -150.46582031 39.11230469 C-146.40100382 28.54626794 -141.03926871 19.21555195 -133.77832031 10.54980469 C-133.15054687 9.73125 -132.52277344 8.91269531 -131.87597656 8.06933594 C-101.90496177 -27.92936899 -34.95716702 -28.50708019 0 0 Z " fill="#000000" transform="translate(1922.7783203125,399.4501953125)"/>
<path d="M0 0 C0.78375 -0.01417969 1.5675 -0.02835937 2.375 -0.04296875 C5 0.1875 5 0.1875 12 2.1875 C12 18.0275 12 33.8675 12 50.1875 C-2.25 49.9375 -2.25 49.9375 -6.66503906 49.82714844 C-19.96961848 49.7152846 -31.02982202 52.8613768 -40.93359375 61.96484375 C-52.49753278 74.12563125 -55.09493462 91.50549639 -55.20532227 107.6328125 C-55.21522186 108.54106277 -55.22512146 109.44931305 -55.23532104 110.38508606 C-55.26668641 113.36086499 -55.29159384 116.33665984 -55.31640625 119.3125 C-55.33699738 121.3861531 -55.3579944 123.4598022 -55.37937927 125.53344727 C-55.43437702 130.97162629 -55.48388397 136.40984178 -55.53222656 141.8480835 C-55.59147421 148.38360044 -55.65757864 154.91905124 -55.72252655 161.45451355 C-55.82025522 171.36546838 -55.90930324 181.27646709 -56 191.1875 C-73.16 191.1875 -90.32 191.1875 -108 191.1875 C-108 129.8075 -108 68.4275 -108 5.1875 C-91.5 5.1875 -75 5.1875 -58 5.1875 C-57.67 15.0875 -57.34 24.9875 -57 35.1875 C-54.69 31.5575 -52.38 27.9275 -50 24.1875 C-37.93978659 9.29762487 -19.2000882 0.15789546 0 0 Z " fill="#000000" transform="translate(2302,379.8125)"/>
<path d="M0 0 C0 8.58 0 17.16 0 26 C-2.98417969 27.23234375 -5.96835937 28.4646875 -9.04296875 29.734375 C-10.99178323 30.53930027 -12.94059541 31.34423111 -14.8894043 32.14916992 C-19.09754302 33.88717902 -23.30608018 35.62421866 -27.51489258 37.3605957 C-36.81956938 41.20034996 -46.12266826 45.04306951 -55.40625 48.93359375 C-57.3888031 49.76236367 -59.37147313 50.59085331 -61.35415649 51.41931152 C-63.15655304 52.17453293 -64.95659606 52.93536331 -66.7565918 53.69628906 C-67.82047119 54.14069336 -68.88435059 54.58509766 -69.98046875 55.04296875 C-70.88692139 55.42477295 -71.79337402 55.80657715 -72.72729492 56.19995117 C-75 57 -75 57 -78 57 C-78 57.66 -78 58.32 -78 59 C-77.38249374 59.17450684 -76.76498749 59.34901367 -76.12876892 59.52880859 C-70.25338173 61.23344949 -64.63469408 63.24183058 -59.00390625 65.625 C-58.17998383 65.96878189 -57.3560614 66.31256378 -56.50717163 66.66676331 C-53.85708304 67.77344311 -51.20982986 68.88673943 -48.5625 70 C-45.81508441 71.14884788 -43.06691353 72.2958751 -40.31867981 73.44276428 C-38.48999029 74.20600004 -36.66152854 74.96978174 -34.83329773 75.7341156 C-23.25556829 80.57206717 -11.62740172 85.28259702 0 90 C0 98.58 0 107.16 0 116 C-3.39512139 115.32097572 -5.77892631 114.80991865 -8.83251953 113.51977539 C-9.55587997 113.21689102 -10.27924042 112.91400665 -11.02452087 112.60194397 C-11.80275711 112.27052902 -12.58099335 111.93911407 -13.3828125 111.59765625 C-14.21345718 111.24839584 -15.04410187 110.89913544 -15.8999176 110.53929138 C-18.64343237 109.38462943 -21.38417091 108.2235208 -24.125 107.0625 C-26.04772526 106.25211124 -27.97066155 105.44222302 -29.89379883 104.6328125 C-33.90642301 102.9435157 -37.91811919 101.25204184 -41.92919922 99.55908203 C-50.59461235 95.90368867 -59.27119437 92.27501497 -67.94775391 88.6461792 C-70.66862053 87.50789827 -73.38906281 86.36860914 -76.109375 85.22900391 C-83.73350031 82.03559959 -91.35897768 78.8458239 -98.99609375 75.68359375 C-100.14053955 75.20921875 -101.28498535 74.73484375 -102.46411133 74.24609375 C-104.49817499 73.4040005 -106.53310184 72.56398767 -108.5690918 71.7265625 C-109.42543213 71.37207031 -110.28177246 71.01757812 -111.1640625 70.65234375 C-111.89061035 70.35320068 -112.6171582 70.05405762 -113.36572266 69.74584961 C-115 69 -115 69 -116 68 C-116.08669432 66.5112814 -116.10703494 65.018555 -116.09765625 63.52734375 C-116.09443359 62.62822266 -116.09121094 61.72910156 -116.08789062 60.80273438 C-116.07951172 59.85720703 -116.07113281 58.91167969 -116.0625 57.9375 C-116.05798828 56.98810547 -116.05347656 56.03871094 -116.04882812 55.06054688 C-116.03700109 52.70696631 -116.01968094 50.35352419 -116 48 C-109.59378784 44.70547761 -103.14467742 41.70130896 -96.47265625 38.98828125 C-95.58190903 38.622258 -94.6911618 38.25623474 -93.77342224 37.87911987 C-91.86295355 37.09443235 -89.95180746 36.31139237 -88.04003906 35.52987671 C-82.92054816 33.43675589 -77.80633709 31.33079616 -72.69140625 29.2265625 C-71.11856369 28.58006996 -71.11856369 28.58006996 -69.51394653 27.92051697 C-58.49095364 23.38662905 -47.49310429 18.79329167 -36.5 14.1875 C-35.61192657 13.81581696 -34.72385315 13.44413391 -33.80886841 13.06118774 C-31.25767399 11.9933806 -28.70689425 10.92458932 -26.15625 9.85546875 C-25.36468002 9.52414444 -24.57311005 9.19282013 -23.7575531 8.85145569 C-20.08871456 7.312236 -16.42853129 5.75734367 -12.78515625 4.15869141 C-12.1365564 3.87528397 -11.48795654 3.59187653 -10.81970215 3.29988098 C-9.100998 2.54626894 -7.38532741 1.7857488 -5.66992188 1.0246582 C-3 0 -3 0 0 0 Z " fill="#000000" transform="translate(689,168)"/>
<path d="M0 0 C3.39512139 0.67902428 5.77892631 1.19008135 8.83251953 2.48022461 C9.9175602 2.93455116 9.9175602 2.93455116 11.02452087 3.39805603 C11.80275711 3.72947098 12.58099335 4.06088593 13.3828125 4.40234375 C14.21345718 4.75160416 15.04410187 5.10086456 15.8999176 5.46070862 C18.64343237 6.61537057 21.38417091 7.7764792 24.125 8.9375 C26.04772526 9.74788876 27.97066155 10.55777698 29.89379883 11.3671875 C33.90642301 13.0564843 37.91811919 14.74795816 41.92919922 16.44091797 C50.59472198 20.09635758 59.27137892 23.72516628 67.94802856 27.35409546 C70.66795654 28.49182509 73.38761162 29.63020452 76.10717773 30.76879883 C89.06544422 36.19369883 102.03003971 41.60310377 115 47 C115 54.26 115 61.52 115 69 C112.03386719 70.23492187 109.06773437 71.46984375 106.01171875 72.7421875 C101.90356352 74.45292738 97.79552441 76.163946 93.6875 77.875 C92.07575897 78.54627426 92.07575897 78.54627426 90.43145752 79.23110962 C75.81292413 85.32019805 61.20100399 91.42478635 46.59631348 97.54699707 C21.39503391 108.10885752 21.39503391 108.10885752 10.4375 112.625 C9.56915527 112.98553467 8.70081055 113.34606934 7.80615234 113.7175293 C2.23567574 116 2.23567574 116 0 116 C0 107.42 0 98.84 0 90 C2.54203125 88.94683594 5.0840625 87.89367187 7.703125 86.80859375 C30.81317572 77.23226516 53.91275877 67.63118747 77 58 C51.40229884 47.16241292 25.73533746 36.50650042 0 26 C0 17.42 0 8.84 0 0 Z " fill="#000000" transform="translate(849,168)"/>
<path d="M0 0 C22 0 22 0 26.8671875 4.3359375 C28.45532227 7.21435547 28.45532227 7.21435547 29.875 10.375 C31.04592595 12.57411677 32.21918964 14.77199006 33.39453125 16.96875 C33.97412598 18.11988281 34.5537207 19.27101563 35.15087891 20.45703125 C38.28817455 26.46817918 41.95115239 32.14079363 45.5625 37.875 C46.8587974 39.97451094 48.15191441 42.07598982 49.44140625 44.1796875 C49.98482666 45.06382324 50.52824707 45.94795898 51.08813477 46.85888672 C53.74651379 51.22649041 56.36937454 55.61562424 59 60 C59.33 40.2 59.66 20.4 60 0 C66.93 0 73.86 0 81 0 C81 31.35 81 62.7 81 95 C58 95 58 95 53.11328125 90.63671875 C51.6105957 87.7878418 51.6105957 87.7878418 50.3125 84.6875 C49.23171767 82.56120142 48.14834367 80.43621835 47.0625 78.3125 C46.55460937 77.24515625 46.04671875 76.1778125 45.5234375 75.078125 C43.28550545 70.55635461 40.58161959 66.39733761 37.8125 62.1875 C32.05353838 53.21812649 26.56000967 44.09819765 21 35 C20.67 54.8 20.34 74.6 20 95 C13.4 95 6.8 95 0 95 C0 63.65 0 32.3 0 0 Z " fill="#1550A0" transform="translate(2234,645)"/>
<path d="M0 0 C11.39399182 7.26946989 17.90328651 17.81197963 20.88183594 30.91088867 C23.64420443 46.69143408 21.73320319 62.78730557 12.96484375 76.3125 C5.85013107 86.00971657 -4.2497486 91.78178744 -15.97265625 94.21484375 C-31.6874271 95.54660399 -45.01551936 93.01744757 -57.34765625 82.83984375 C-66.7637874 74.03067576 -71.32636428 62.33708623 -72.0078125 49.5703125 C-72.26385797 40.59356039 -72.11129846 31.93868275 -68.66015625 23.52734375 C-68.26957031 22.54636719 -67.87898438 21.56539062 -67.4765625 20.5546875 C-62.79265893 10.05902823 -55.65072984 2.31684293 -45.1796875 -2.53515625 C-30.70918147 -7.91953059 -13.58982794 -7.52329682 0 0 Z M-43.66015625 20.52734375 C-50.42902542 31.7965962 -51.45406505 44.08230586 -49.01171875 56.94140625 C-46.51760871 64.50900508 -42.24857101 70.2307583 -35.53515625 74.52734375 C-29.01392191 76.7795985 -20.61904808 76.80536648 -14.28515625 74.02734375 C-7.23080599 69.79175078 -2.72815053 63.40226597 -0.66015625 55.52734375 C1.92279706 44.72590264 0.63905138 32.65738699 -5.03515625 23.02734375 C-9.0328531 17.29770702 -13.93287197 14.19706539 -20.66015625 12.52734375 C-29.22367294 11.41947621 -37.95361405 13.69238925 -43.66015625 20.52734375 Z " fill="#1550A0" transform="translate(1323.66015625,648.47265625)"/>
<path d="M0 0 C0.9182959 0.00902344 1.8365918 0.01804687 2.78271484 0.02734375 C15.0732181 0.33997976 24.48768781 4.06403252 33.625 12.4375 C43.15671341 23.43971938 47.03312117 35.94715127 46.9375 50.3125 C46.93012817 51.62903564 46.93012817 51.62903564 46.92260742 52.97216797 C46.80459199 59.50961777 46.10774579 65.33617734 43.625 71.4375 C43.29628906 72.27152344 42.96757812 73.10554687 42.62890625 73.96484375 C37.07933531 86.42737504 28.04372789 93.57491591 15.625 98.4375 C2.46061261 102.6312977 -12.03248052 100.94688669 -24.25 94.6875 C-34.67952116 88.4902483 -41.37908064 79.04882319 -45.3125 67.5625 C-49.07182226 51.39741427 -47.3340057 33.66802748 -38.703125 19.421875 C-29.62853262 5.86336639 -16.09478762 -0.19064712 0 0 Z M-17.75 25.5625 C-23.99829211 33.81095361 -26.28437285 44.23231584 -25.375 54.4375 C-23.89708265 64.4322292 -21.20984402 70.95642505 -13.8125 77.8125 C-7.33150414 82.13316391 -0.96477185 82.15507843 6.625 81.4375 C13.29487214 79.70705698 17.85469962 75.03794619 21.625 69.4375 C26.81682602 59.39616615 26.33137812 47.35065961 23.6953125 36.67578125 C21.21002669 29.15643112 17.39947183 24.27092949 10.5546875 20.3125 C1.17932094 16.06132164 -10.64241706 17.98943303 -17.75 25.5625 Z " fill="#1550A0" transform="translate(2094.375,642.5625)"/>
<path d="M0 0 C6.85152972 4.71516713 11.06271472 10.41266984 12.6796875 18.64453125 C12.6796875 20.95453125 12.6796875 23.26453125 12.6796875 25.64453125 C5.7496875 25.64453125 -1.1803125 25.64453125 -8.3203125 25.64453125 C-9.3103125 23.00453125 -10.3003125 20.36453125 -11.3203125 17.64453125 C-16.7815458 12.31982878 -21.81353412 12.31074207 -29.13671875 12.3515625 C-33.42735063 12.74640592 -35.22414724 13.72037517 -38.3203125 16.64453125 C-39.71966263 19.44323152 -39.57296655 21.54951917 -39.3203125 24.64453125 C-36.92403496 27.962454 -33.73734091 28.73906186 -29.9453125 29.95703125 C-29.30190918 30.167229 -28.65850586 30.37742676 -27.99560547 30.59399414 C-24.01687979 31.87030363 -20.01322684 33.01137871 -15.9765625 34.08984375 C-15.06052246 34.33822998 -14.14448242 34.58661621 -13.20068359 34.8425293 C-11.41079386 35.32290995 -9.61692413 35.78878183 -7.81884766 36.23754883 C2.07462981 38.88924297 9.17006257 43.75337512 14.4296875 52.58203125 C17.20235788 59.58264098 16.8882787 68.66996568 14.0546875 75.58203125 C12.921875 77.69140625 12.921875 77.69140625 11.6796875 79.64453125 C11.29039063 80.2684375 10.90109375 80.89234375 10.5 81.53515625 C5.28252128 88.63586694 -3.38991395 92.27489016 -11.8203125 94.01953125 C-25.88353854 95.9710805 -40.33482317 94.80595653 -52.3203125 86.64453125 C-53.2278125 86.04640625 -54.1353125 85.44828125 -55.0703125 84.83203125 C-59.60307427 80.42517953 -62.93193481 74.82912278 -64.3203125 68.64453125 C-64.3203125 65.67453125 -64.3203125 62.70453125 -64.3203125 59.64453125 C-57.3903125 59.64453125 -50.4603125 59.64453125 -43.3203125 59.64453125 C-42.3303125 62.94453125 -41.3403125 66.24453125 -40.3203125 69.64453125 C-36.06250346 74.51059873 -31.59259129 76.09484798 -25.3203125 76.64453125 C-18.2730197 76.72382568 -13.07966101 75.77623779 -7.3203125 71.64453125 C-5.75095656 68.50581937 -5.96830147 66.10597303 -6.3203125 62.64453125 C-9.81736885 58.29630458 -13.31284949 56.56786164 -18.5703125 55.14453125 C-19.2627002 54.94077881 -19.95508789 54.73702637 -20.66845703 54.52709961 C-24.3646477 53.4456216 -28.0802233 52.43807507 -31.796875 51.4296875 C-52.99369064 45.59325597 -52.99369064 45.59325597 -58.3203125 36.64453125 C-61.94316299 29.74687705 -62.51377653 22.51784273 -60.6640625 14.96484375 C-58.12409821 7.76097952 -54.29733759 2.81330556 -47.5625 -0.859375 C-32.96382255 -7.69155605 -14.17800762 -8.2824388 0 0 Z " fill="#1550A0" transform="translate(1149.3203125,648.35546875)"/>
<path d="M0 0 C8.87413346 7.12870348 10.63196262 13.22281979 11.88671875 24.515625 C4.62671875 24.515625 -2.63328125 24.515625 -10.11328125 24.515625 C-11.10328125 21.545625 -12.09328125 18.575625 -13.11328125 15.515625 C-16.27438436 12.25255082 -19.48067583 11.63386383 -23.91796875 11.3125 C-31.94589916 11.14626701 -31.94589916 11.14626701 -39.11328125 14.515625 C-40.66759079 17.62424408 -41.0000037 21.17387247 -40.11328125 24.515625 C-36.42314146 27.38107446 -32.16073756 28.63257148 -27.73828125 29.953125 C-27.0414624 30.16775391 -26.34464355 30.38238281 -25.62670898 30.60351562 C-20.84160838 32.05776331 -16.02796265 33.30625183 -11.17578125 34.515625 C-1.30791416 37.13045414 6.11766226 40.82295452 11.88671875 49.515625 C15.81268305 57.50726764 15.88068267 65.56029903 13.109375 73.92578125 C9.2925777 82.01056274 2.92084323 87.38658157 -5.296875 90.62109375 C-19.42282104 95.10769797 -34.82359362 95.14327781 -48.36328125 88.828125 C-55.96986578 84.74894625 -61.13424108 80.09036542 -64.40234375 72.00390625 C-65.67726319 67.5416882 -65.87911485 63.14041149 -66.11328125 58.515625 C-59.18328125 58.515625 -52.25328125 58.515625 -45.11328125 58.515625 C-44.57703125 60.248125 -44.04078125 61.980625 -43.48828125 63.765625 C-42.11996908 67.47961518 -41.3296652 69.30930542 -38.42578125 72.078125 C-29.77245716 75.83334111 -21.64235353 76.52619674 -12.67578125 73.265625 C-9.70807056 71.23889575 -8.43549403 69.86004556 -7.11328125 66.515625 C-6.94879244 63.41913624 -6.94879244 63.41913624 -8.11328125 60.515625 C-11.8014015 56.9575127 -15.58501161 55.44166371 -20.42578125 54.078125 C-21.84897809 53.65371209 -23.27215457 53.22923089 -24.6953125 52.8046875 C-26.16796503 52.37498725 -27.64062129 51.94529979 -29.11328125 51.515625 C-54.56544408 43.96959242 -54.56544408 43.96959242 -61.26171875 32.55859375 C-64.0264862 25.92568835 -63.62582932 18.14596018 -61.11328125 11.515625 C-56.93778648 3.02357145 -50.57408477 -2.01716413 -41.80078125 -5.359375 C-28.25448376 -8.93202489 -11.74665324 -7.9105251 0 0 Z " fill="#1550A0" transform="translate(2471.11328125,649.484375)"/>
<path d="M0 0 C6.93 0 13.86 0 21 0 C21.01458252 1.89161865 21.02916504 3.7832373 21.04418945 5.73217773 C21.09601955 12.01073896 21.16135271 18.28904859 21.23571491 24.56738186 C21.28027507 28.37066429 21.31956183 32.17384314 21.34643555 35.97729492 C21.37261308 39.65389949 21.41311483 43.33010235 21.46318626 47.00645638 C21.47975805 48.40288322 21.49133225 49.79937939 21.49761391 51.19589043 C21.29274458 64.42330083 21.29274458 64.42330083 27.5 75.5 C33.5142699 79.10856194 40.1976433 78.52673116 47 78 C50.16665926 77.20833519 52.68324221 76.32842911 55 74 C57.41232278 69.13917605 58.38037175 65.55666882 58.43237305 60.05493164 C58.4425647 59.40042023 58.45275635 58.74590881 58.46325684 58.07156372 C58.49315808 55.93433825 58.5026169 53.79756256 58.51171875 51.66015625 C58.52858254 50.16798948 58.54673506 48.67583676 58.56611633 47.18370056 C58.61343835 43.27607619 58.64336226 39.36850885 58.66955566 35.46069336 C58.69945157 31.46521753 58.74595065 27.46993781 58.79101562 23.47460938 C58.87684611 15.64982053 58.94274424 7.82505967 59 0 C66.26 0 73.52 0 81 0 C81.06813227 8.39808815 81.12301968 16.79595666 81.15543652 25.1942482 C81.17100523 29.09509915 81.19207974 32.99574907 81.22631836 36.89648438 C81.25922949 40.67016285 81.27691889 44.44364957 81.28463173 48.21746063 C81.29011891 49.64777387 81.30083163 51.07807819 81.31719017 52.50830841 C81.45547016 65.11461903 80.633726 77.13008142 72 87 C63.43457029 95.39637517 52.07537545 97.88151846 40.4375 98.25 C28.58494875 98.10165768 16.87294356 95.78368455 8.1953125 87.21875 C-0.0046363 77.2645833 -0.56708831 65.96193006 -0.390625 53.61328125 C-0.38314738 52.05959305 -0.37746166 50.50589529 -0.37347412 48.95219421 C-0.35833711 44.89963891 -0.31916171 40.8476741 -0.2746582 36.79534912 C-0.23344481 32.64554833 -0.21540795 28.49565039 -0.1953125 24.34570312 C-0.1526528 16.23017004 -0.08240418 8.11522692 0 0 Z " fill="#1550A0" transform="translate(1596,645)"/>
<path d="M0 0 C9.24 0 18.48 0 28 0 C22.68542272 13.36696711 17.2587757 26.67584328 11.6875 39.9375 C10.90616999 41.8007477 10.12492211 43.66402984 9.34375 45.52734375 C2.96929253 60.7241007 -3.44233452 75.90516045 -9.86108398 91.08325195 C-13.93381903 100.71704197 -17.99179123 110.35674694 -22.0234375 120.0078125 C-22.4331781 120.98840637 -22.8429187 121.96900024 -23.26507568 122.97930908 C-25.22160514 127.66287391 -27.17591016 132.34735021 -29.12695312 137.03320312 C-29.83198694 138.72267474 -30.53706285 140.41212879 -31.2421875 142.1015625 C-31.54973969 142.84238068 -31.85729187 143.58319885 -32.17416382 144.34646606 C-34.66055565 150.29706493 -37.32701958 156.11944308 -40 162 C-48.91 162 -57.82 162 -67 162 C-66.29110973 158.45554866 -65.68710521 155.92733553 -64.33618164 152.70849609 C-63.99322556 151.8849614 -63.65026947 151.0614267 -63.29692078 150.2129364 C-62.92178848 149.32540176 -62.54665619 148.43786713 -62.16015625 147.5234375 C-61.57008537 146.11195183 -61.57008537 146.11195183 -60.96809387 144.67195129 C-59.67057555 141.57112656 -58.36654821 138.47308359 -57.0625 135.375 C-56.15142598 133.20110768 -55.24078704 131.02703298 -54.33056641 128.8527832 C-52.46291533 124.39349219 -50.59269615 119.93529223 -48.72021484 115.47802734 C-46.24163487 109.57746288 -43.76960223 103.6741846 -41.30078125 97.76953125 C-38.35688722 90.72932631 -35.410248 83.69028129 -32.4609375 76.65234375 C-29.37701784 69.29277734 -26.29997521 61.93036613 -23.2265625 54.56640625 C-15.60890579 36.32075486 -7.95887924 18.10003182 0 0 Z " fill="#000000" transform="translate(786,149)"/>
<path d="M0 0 C25.74 0 51.48 0 78 0 C78 5.94 78 11.88 78 18 C68.76 18 59.52 18 50 18 C50 43.41 50 68.82 50 95 C42.74 95 35.48 95 28 95 C28 69.59 28 44.18 28 18 C18.76 18 9.52 18 0 18 C0 12.06 0 6.12 0 0 Z " fill="#1550A0" transform="translate(1766,645)"/>
<path d="M0 0 C7.26 0 14.52 0 22 0 C22 25.41 22 50.82 22 77 C37.18 77 52.36 77 68 77 C68 82.94 68 88.88 68 95 C45.56 95 23.12 95 0 95 C0 63.65 0 32.3 0 0 Z " fill="#1550A0" transform="translate(1438,645)"/>
<path d="M0 0 C7.26 0 14.52 0 22 0 C22 31.35 22 62.7 22 95 C14.74 95 7.48 95 0 95 C0 63.65 0 32.3 0 0 Z " fill="#1550A0" transform="translate(1933,645)"/>
</svg>
